<?xml version="1.0" encoding="utf-8"?>
<!-- Generator: Adobe Illustrator 24.0.3, SVG Export Plug-In . SVG Version: 6.00 Build 0)  -->
<svg version="1.1" id="Layer_1" xmlns="http://www.w3.org/2000/svg" xmlns:xlink="http://www.w3.org/1999/xlink" x="0px" y="0px"
	 viewBox="0 0 208.9 53.9" style="enable-background:new 0 0 208.9 53.9;" xml:space="preserve">
<style type="text/css">
	.st0{fill:#000000;}
	.st1{fill:#E5007E;}
	.st2{fill:#D41C73;}
	.st3{fill:#35A8E0;}
	.st4{fill:#682679;}
	.st5{fill:#00A099;}
	.st6{fill:#008188;}
	.st7{fill:#572B5A;}
</style>
<g>
	<g>
		<polygon class="st0" points="131.4,29.1 141.5,29.1 141.5,24.9 131.4,24.9 131.4,21 142.4,21 142.4,16.6 126.2,16.6 126.2,37.5
			142.5,37.5 142.5,33.1 131.4,33.1 		"/>
		<polygon class="st0" points="164.9,16.6 158.9,16.6 154.5,23.6 150.3,16.6 144.2,16.6 150.7,27 144.1,37.5 150.2,37.5 154.5,30.4
			158.9,37.5 165,37.5 158.5,27 		"/>
		<path class="st0" d="M177.3,16.6H167v20.9h5.1v-6.4h4.9c4.6,0,7.9-2.8,7.9-7.3c0-1.1-0.2-2-0.5-2.9
			C183.4,18.3,180.9,16.6,177.3,16.6z M176.7,26.8h-4.6V21h4.6c1.8,0,3.2,1.1,3.2,2.9C179.9,25.7,178.6,26.8,176.7,26.8z"/>
		<path class="st0" d="M205.6,19.3c-1.8-1.8-4.5-3.2-7.9-3.2c-3.4,0-6.1,1.4-7.9,3.2c-1.8,1.8-3.2,4.4-3.2,7.8c0,3.3,1.5,6,3.2,7.7
			c1.8,1.8,4.5,3.2,7.9,3.2c3.4,0,6.1-1.4,7.9-3.2c1.8-1.8,3.2-4.4,3.2-7.7C208.9,23.7,207.4,21.1,205.6,19.3z M203.3,29.5
			c-0.8,2.1-2.7,3.7-5.5,3.7c-0.8,0-1.6-0.2-2.4-0.5c-2.1-0.9-3.6-2.8-3.6-5.7c0-0.9,0.2-1.7,0.5-2.6c0.8-2,2.8-3.6,5.5-3.6
			c0.8,0,1.7,0.2,2.5,0.5c2,0.9,3.5,3,3.5,5.7C203.7,27.9,203.6,28.7,203.3,29.5z"/>
	</g>
	<g>
		<polygon class="st0" points="25.4,16.3 21.6,29.8 17.9,16.3 12.9,16.3 9.2,29.8 5.4,16.3 0,16.3 6.1,37.8 11.8,37.8 15.4,24.5
			19,37.8 24.7,37.8 30.8,16.3 		"/>
		<path class="st0" d="M37,16.3l-9,21.5h5.7l1.5-3.9h9.1l1.5,3.9h5.7l-9-21.5H37z M37,29.3l2.7-7.1l2.8,7.1H37z"/>
		<polygon class="st0" points="58.2,25.7 52.9,16.3 47.1,16.3 55.5,31.1 55.5,37.8 60.8,37.8 60.8,31 69.4,16.3 63.4,16.3 		"/>
	</g>
	<g>
		<polygon class="st1" points="118.1,45.4 112.6,36.1 107.1,31.8 107.1,38.1 104.4,47.8 107.1,47.8 107.1,53.9 		"/>
		<path class="st2" d="M85.1,26.5l7.2-7c-0.6-0.2-1.2-0.5-1.7-0.9l-11.3-1.1C80.1,21.2,82.2,24.4,85.1,26.5z"/>
		<path class="st3" d="M79.1,14.8c0,1,0.1,1.9,0.3,2.8l9.3-2.4c0-0.1,0-0.3,0-0.4c0-1.2,0.4-2.2,1.1-3.1l-9.2-3.3
			C79.6,10.3,79.1,12.5,79.1,14.8z"/>
		<path class="st4" d="M79.4,17.6l11.3,1.1c-1.1-0.8-1.8-2.1-1.9-3.5L79.4,17.6C79.4,17.6,79.4,17.6,79.4,17.6z"/>
		<path class="st5" d="M93.6,0.2c-3.8,0-7.3,1.5-9.9,3.9l6.6,7c0.9-0.8,2.1-1.3,3.4-1.3c0.2,0,0.3,0,0.4,0l0.1-9.6
			C94,0.2,93.8,0.2,93.6,0.2z"/>
		<path class="st6" d="M80.6,8.4l9.2,3.3c0.2-0.2,0.3-0.4,0.5-0.6l-6.6-7C82.4,5.4,81.4,6.8,80.6,8.4z"/>
		<path class="st1" d="M107.2,9.6c-1.4-3.7-4.2-6.6-7.8-8.2l-5.2,8.4l0,0c1.8,0.2,3.4,1.4,4.1,3h0L107.2,9.6z"/>
		<path class="st7" d="M99.4,1.4c-1.6-0.7-3.3-1.1-5.2-1.2l-0.1,9.6c0,0,0,0,0.1,0l0,0L99.4,1.4z"/>
		<path class="st3" d="M108.2,14.8c0-0.6,0-1.2-0.1-1.8l-9.9-0.2h0l0,0c0.2,0.6,0.4,1.2,0.4,1.9c0,0.9-0.3,1.7-0.7,2.4l8.9,3.9
			C107.7,19.2,108.2,17,108.2,14.8z"/>
		<path class="st4" d="M98.2,12.8l9.9,0.2c-0.1-1.2-0.4-2.3-0.9-3.4L98.2,12.8L98.2,12.8z"/>
		<path class="st5" d="M102.1,26.8l-5-8.6c-0.2,0.2-0.3,0.4-0.5,0.5l-5.9,5.7l9.1,4.6C100.7,28.1,101.5,27.4,102.1,26.8z"/>
		<path class="st6" d="M103.8,25.1c1.2-1.2,2.1-2.5,2.9-4l-8.9-3.9c-0.2,0.3-0.5,0.7-0.7,1l5,8.6C103.2,25.8,103.8,25.1,103.8,25.1z
			"/>
		<path class="st1" d="M90.5,38.1L90.5,38.1c0,0,2.2-2.2,4.9-4.8L90.1,25l-6.6,6.3c-0.6,0.6-1.1,1.2-1.6,1.8L90.5,38.1L90.5,38.1z"
			/>
		<path class="st7" d="M99.9,29l-9.1-4.6L90.1,25l5.3,8.3C96.9,31.9,98.5,30.3,99.9,29z"/>
		<path class="st3" d="M79.9,36.9c-0.3,0.8-0.5,1.6-0.7,2.5C79.1,40.2,79,41,79,41.9v5.9h5.5l5.8-9.6L79.9,36.9z"/>
		<path class="st4" d="M81.9,33.2c-0.8,1.1-1.5,2.4-2,3.7l10.5,1.2L81.9,33.2z"/>
		<polygon class="st4" points="121.3,42.9 121.3,42.9 112.6,36.1 118.1,45.4 		"/>
		<polygon class="st5" points="90.4,38.1 96.5,47.8 98,47.8 107.1,38.1 		"/>
		<polygon class="st7" points="98,47.8 104.4,47.8 107.1,38.1 		"/>
		<polygon class="st6" points="84.6,47.8 96.5,47.8 90.4,38.1 		"/>
	</g>
</g>
</svg>
