<?xml version="1.0" encoding="UTF-8" standalone="no"?>
<!DOCTYPE svg PUBLIC "-//W3C//DTD SVG 1.1//EN" "http://www.w3.org/Graphics/SVG/1.1/DTD/svg11.dtd">
<svg width="100%" height="100%" viewBox="0 0 393 175" version="1.1" xmlns="http://www.w3.org/2000/svg" xmlns:xlink="http://www.w3.org/1999/xlink" xml:space="preserve" xmlns:serif="http://www.serif.com/" style="fill-rule:evenodd;clip-rule:evenodd;stroke-linejoin:round;stroke-miterlimit:2;">
    <g id="Artboard1" transform="matrix(1.00076,0,0,1.0027,-7.11085e-14,0)">
        <rect x="0" y="0" width="392.7" height="174.528" style="fill:none;"/>
        <clipPath id="_clip1">
            <rect x="0" y="0" width="392.7" height="174.528"/>
        </clipPath>
        <g clip-path="url(#_clip1)">
            <g transform="matrix(0.991422,0,0,0.989505,-84.7757,-79.9534)">
                <path d="M140.965,106.183L127.488,138.435L136.007,138.435L138.269,132.561L151.847,132.561L154.109,138.435L162.58,138.435L149.102,106.183L140.965,106.183ZM123.536,106.183L117.907,126.496L112.368,106.183L104.814,106.183L99.275,126.496L93.646,106.183L85.509,106.183L94.704,138.435L103.175,138.435L108.616,118.507L114.007,138.435L122.527,138.435L131.721,106.183L123.536,106.183ZM172.785,120.335L164.843,106.184L156.176,106.184L168.645,128.422L168.645,138.434L176.734,138.434L176.734,128.325L189.491,106.184L180.632,106.184L172.785,120.335ZM140.965,125.726L145.057,115.134L149.199,125.726L140.965,125.726Z" style="fill:rgb(35,31,32);fill-rule:nonzero;"/>
            </g>
            <g transform="matrix(0.584294,0,0,0.583164,-48.9717,-92.1728)">
                <g transform="matrix(4.16667,0,0,4.16667,508.482,377.741)">
                    <path d="M0,6.917L-7.808,-6.065L-15.452,-11.992L-15.452,-3.24L-19.229,10.263L-15.467,10.263L-15.467,18.909L0,6.917Z" style="fill:rgb(236,0,140);fill-rule:nonzero;"/>
                </g>
                <g transform="matrix(2.997,-2.89467,-2.89467,-2.997,335.478,292.545)">
                    <path d="M-4.063,2.485L10.026,2.485C9.546,3.283 9.259,4.158 9.123,5.051L-1.138,17.095C-3.981,12.698 -4.946,7.457 -4.063,2.485" style="fill:rgb(214,36,124);fill-rule:nonzero;"/>
                </g>
                <g transform="matrix(4.16667,0,0,4.16667,280.971,207.406)">
                    <path d="M0,5C0,6.345 0.136,7.656 0.386,8.927L13.453,5.556C13.438,5.37 13.405,5.189 13.405,5C13.405,3.372 13.97,1.878 14.909,0.694L2.084,-3.927C0.763,-1.229 0,1.792 0,5" style="fill:rgb(36,170,225);fill-rule:nonzero;"/>
                </g>
                <g transform="matrix(4.14706,0.403699,0.403699,-4.14706,282.363,241.412)">
                    <path d="M0.126,-0.759L15.949,-0.759C14.335,0.244 13.16,1.884 12.804,3.865L0.126,-0.757C0.126,-0.758 0.126,-0.759 0.126,-0.759" style="fill:rgb(105,45,131);fill-rule:nonzero;"/>
                </g>
                <g transform="matrix(4.16667,0,0,4.16667,365.737,206.992)">
                    <path d="M0,-15.245C-5.372,-15.245 -10.244,-13.147 -13.88,-9.745L-4.693,0C-3.458,-1.139 -1.812,-1.84 0,-1.84C0.212,-1.84 0.421,-1.827 0.629,-1.808L0.789,-15.205C0.525,-15.215 0.267,-15.245 0,-15.245" style="fill:rgb(8,167,157);fill-rule:nonzero;"/>
                </g>
                <g transform="matrix(3.91984,1.41278,1.41278,-3.91984,290.416,181.3)">
                    <path d="M0.621,-2.262L14.253,-2.262C14.369,-1.917 14.514,-1.584 14.682,-1.263L2.735,4.79C1.614,2.598 0.894,0.212 0.621,-2.262" style="fill:rgb(0,137,141);fill-rule:nonzero;"/>
                </g>
                <g transform="matrix(4.16667,0,0,4.16667,444.85,169.367)">
                    <path d="M0,6.871C-1.963,1.739 -5.928,-2.399 -10.957,-4.563L-18.266,7.227L-18.267,7.228C-15.704,7.493 -13.555,9.152 -12.592,11.434L-12.591,11.434L0,6.871Z" style="fill:rgb(236,0,140);fill-rule:nonzero;"/>
                </g>
                <g transform="matrix(4.16667,0,0,4.16667,399.198,192.769)">
                    <path d="M0,-10.179C-2.234,-11.14 -4.679,-11.693 -7.242,-11.791L-7.402,1.606C-7.371,1.609 -7.34,1.608 -7.31,1.612L-7.31,1.611L0,-10.179Z" style="fill:rgb(89,46,98);fill-rule:nonzero;"/>
                </g>
                <g transform="matrix(4.16667,0,0,4.16667,450.505,253.943)">
                    <path d="M0,-6.169C0,-7.012 -0.067,-7.837 -0.167,-8.653L-13.948,-8.864C-13.599,-8.035 -13.405,-7.125 -13.405,-6.169C-13.405,-4.905 -13.828,-3.794 -14.445,-2.799L-2.059,2.695C-0.754,0.013 0,-2.986 0,-6.169" style="fill:rgb(36,170,225);fill-rule:nonzero;"/>
                </g>
                <g transform="matrix(4.16667,0,0,4.16667,392.387,198.875)">
                    <path d="M0,4.352L13.782,4.563C13.579,2.9 13.171,1.304 12.591,-0.211L0,4.352Z" style="fill:rgb(105,45,131);fill-rule:nonzero;"/>
                </g>
                <g transform="matrix(4.16667,0,0,4.16667,415.246,260.596)">
                    <path d="M0,9.045L-6.981,-3.043C-7.201,-2.787 -7.425,-2.537 -7.656,-2.298L-15.938,5.675L-3.148,12.088C-1.969,10.949 -0.887,9.903 0,9.045" style="fill:rgb(8,167,157);fill-rule:nonzero;"/>
                </g>
                <g transform="matrix(4.16667,0,0,4.16667,425.169,251.923)">
                    <path d="M0,8.812C1.647,7.191 3,5.28 4.021,3.18L-8.364,-2.314C-8.66,-1.837 -8.998,-1.386 -9.362,-0.961L-2.381,11.126C-0.939,9.731 -0.007,8.826 0,8.812" style="fill:rgb(0,137,141);fill-rule:nonzero;"/>
                </g>
                <g transform="matrix(4.16667,0,0,4.16667,347.168,288.165)">
                    <path d="M0,18.258L-0.056,18.258C-0.056,18.258 3.116,15.198 6.852,11.593L-0.543,-0.033L-9.715,8.797C-10.557,9.609 -11.31,10.472 -11.984,11.378L-0.056,18.291L0,18.258Z" style="fill:rgb(236,0,140);fill-rule:nonzero;"/>
                </g>
                <g transform="matrix(-3.72468,-1.86758,-1.86758,3.72468,348.212,296.989)">
                    <path d="M-13.071,-2.802L1.237,-2.802L1.673,-1.567L-10.148,5.512C-11.112,2.771 -12.155,-0.195 -13.071,-2.802" style="fill:rgb(89,46,98);fill-rule:nonzero;"/>
                </g>
                <g transform="matrix(4.16667,0,0,4.16667,285.724,420.501)">
                    <path d="M0,-15.197C-0.399,-14.071 -0.71,-12.903 -0.913,-11.687C-1.111,-10.581 -1.212,-9.429 -1.212,-8.267L-1.212,0L6.514,0L14.69,-13.469L0,-15.197Z" style="fill:rgb(36,170,225);fill-rule:nonzero;"/>
                </g>
                <g transform="matrix(4.16667,0,0,4.16667,297.233,364.38)">
                    <path d="M0,-6.914C-1.184,-5.323 -2.104,-3.588 -2.762,-1.728L11.928,0L0,-6.914Z" style="fill:rgb(105,45,131);fill-rule:nonzero;"/>
                </g>
                <g transform="matrix(4.16667,0,0,4.16667,527.063,366.878)">
                    <path d="M0,6.066L0.016,6.066L-12.268,-3.458L-4.459,9.524L0,6.066Z" style="fill:rgb(105,45,131);fill-rule:nonzero;"/>
                </g>
                <g transform="matrix(2.21966,3.52622,3.52622,-2.21966,393.327,336.344)">
                    <path d="M-0.237,-13.007L15.679,-13.007L16.809,-11.212L12.158,6.746L-0.237,-13.007Z" style="fill:rgb(8,167,157);fill-rule:nonzero;"/>
                </g>
                <g transform="matrix(4.16667,0,0,4.16667,391.099,364.24)">
                    <path d="M0,13.503L8.943,13.503L12.72,0L0,13.503Z" style="fill:rgb(89,46,98);fill-rule:nonzero;"/>
                </g>
                <g transform="matrix(4.16667,0,0,4.16667,312.866,364.377)">
                    <path d="M0,13.47L16.656,13.47L8.176,0L0,13.47Z" style="fill:rgb(0,137,141);fill-rule:nonzero;"/>
                </g>
            </g>
            <g transform="matrix(0.993972,0,0,0.992049,-83.5633,-79.716)">
                <path d="M474.072,207.478C471.415,204.844 467.426,202.769 462.447,202.769C457.462,202.769 453.482,204.844 450.82,207.478C448.192,210.079 446.04,214.009 446.04,218.901C446.04,223.787 448.181,227.668 450.82,230.251C453.482,232.857 457.48,234.938 462.447,234.938C467.417,234.938 471.409,232.863 474.072,230.251C476.705,227.668 478.851,223.781 478.851,218.901C478.851,214.003 476.705,210.084 474.072,207.478ZM364.729,221.935L379.668,221.935L379.668,215.771L364.729,215.771L364.729,209.982L381,209.982L381,203.457L357.149,203.457L357.149,234.249L381.139,234.249L381.139,227.724L364.729,227.724L364.729,221.935ZM432.384,203.457L417.222,203.457L417.222,234.249L424.802,234.249L424.802,224.829L432.064,224.829C438.859,224.829 443.694,220.752 443.694,214.074C443.694,212.51 443.433,211.077 442.913,209.777C441.377,205.937 437.723,203.457 432.384,203.457ZM414.164,203.457L405.202,203.457L398.858,213.846L392.561,203.457L383.602,203.457L393.161,218.805L383.509,234.248L392.473,234.248L398.858,223.768L405.293,234.248L414.258,234.248L404.606,218.805L414.164,203.457ZM470.605,222.483C469.404,225.54 466.612,227.997 462.447,227.997C461.222,227.997 460.063,227.77 458.974,227.309C455.945,226.03 453.622,223.139 453.622,218.901C453.622,217.611 453.873,216.331 454.38,215.06C455.567,212.072 458.519,209.708 462.447,209.708C463.669,209.708 464.889,209.969 466.099,210.489C469.078,211.769 471.271,214.851 471.271,218.901C471.271,220.156 471.047,221.348 470.605,222.483ZM431.515,218.486L424.802,218.486L424.802,209.935L431.515,209.935C434.204,209.935 436.247,211.57 436.247,214.168C436.247,216.842 434.26,218.486 431.515,218.486Z" style="fill:rgb(35,31,32);fill-rule:nonzero;"/>
            </g>
        </g>
    </g>
</svg>
